<mxfile host="Electron" modified="2023-10-06T08:13:52.627Z" agent="Mozilla/5.0 (Windows NT 10.0; Win64; x64) AppleWebKit/537.36 (KHTML, like Gecko) draw.io/21.1.2 Chrome/106.0.5249.199 Electron/21.4.3 Safari/537.36" etag="sBYxwowDP34UiVUOKhzW" version="21.1.2" type="device">
  <diagram name="Страница 1" id="LyG0uCd284oqRqdD2IGG">
    <mxGraphModel dx="686" dy="914" grid="1" gridSize="10" guides="1" tooltips="1" connect="1" arrows="1" fold="1" page="1" pageScale="1" pageWidth="827" pageHeight="1169" math="0" shadow="0">
      <root>
        <mxCell id="0" />
        <mxCell id="1" parent="0" />
        <mxCell id="C55gJNyZ2iTpCZ69nZVK-6" style="edgeStyle=orthogonalEdgeStyle;rounded=0;orthogonalLoop=1;jettySize=auto;html=1;entryX=0.5;entryY=0;entryDx=0;entryDy=0;" edge="1" parent="1" source="C55gJNyZ2iTpCZ69nZVK-1" target="C55gJNyZ2iTpCZ69nZVK-3">
          <mxGeometry relative="1" as="geometry" />
        </mxCell>
        <mxCell id="C55gJNyZ2iTpCZ69nZVK-1" value="начало" style="ellipse;whiteSpace=wrap;html=1;" vertex="1" parent="1">
          <mxGeometry x="250" y="10" width="120" height="80" as="geometry" />
        </mxCell>
        <mxCell id="C55gJNyZ2iTpCZ69nZVK-8" value="" style="edgeStyle=orthogonalEdgeStyle;rounded=0;orthogonalLoop=1;jettySize=auto;html=1;" edge="1" parent="1" source="C55gJNyZ2iTpCZ69nZVK-3" target="C55gJNyZ2iTpCZ69nZVK-7">
          <mxGeometry relative="1" as="geometry" />
        </mxCell>
        <mxCell id="C55gJNyZ2iTpCZ69nZVK-3" value="ввод Array" style="rounded=0;whiteSpace=wrap;html=1;" vertex="1" parent="1">
          <mxGeometry x="240" y="120" width="140" height="60" as="geometry" />
        </mxCell>
        <mxCell id="C55gJNyZ2iTpCZ69nZVK-9" style="edgeStyle=orthogonalEdgeStyle;rounded=0;orthogonalLoop=1;jettySize=auto;html=1;" edge="1" parent="1" source="C55gJNyZ2iTpCZ69nZVK-7">
          <mxGeometry relative="1" as="geometry">
            <mxPoint x="310" y="310" as="targetPoint" />
          </mxGeometry>
        </mxCell>
        <mxCell id="C55gJNyZ2iTpCZ69nZVK-7" value="перебираем элементы массива&lt;br&gt;for (i=0, i&amp;lt;array.lenght, i++)" style="whiteSpace=wrap;html=1;rounded=0;" vertex="1" parent="1">
          <mxGeometry x="250" y="210" width="120" height="60" as="geometry" />
        </mxCell>
        <mxCell id="C55gJNyZ2iTpCZ69nZVK-17" value="" style="edgeStyle=orthogonalEdgeStyle;rounded=0;orthogonalLoop=1;jettySize=auto;html=1;" edge="1" parent="1" source="C55gJNyZ2iTpCZ69nZVK-15" target="C55gJNyZ2iTpCZ69nZVK-16">
          <mxGeometry relative="1" as="geometry" />
        </mxCell>
        <mxCell id="C55gJNyZ2iTpCZ69nZVK-28" value="yes" style="edgeLabel;html=1;align=center;verticalAlign=middle;resizable=0;points=[];" vertex="1" connectable="0" parent="C55gJNyZ2iTpCZ69nZVK-17">
          <mxGeometry x="-0.2161" y="1" relative="1" as="geometry">
            <mxPoint as="offset" />
          </mxGeometry>
        </mxCell>
        <mxCell id="C55gJNyZ2iTpCZ69nZVK-26" value="" style="edgeStyle=orthogonalEdgeStyle;rounded=0;orthogonalLoop=1;jettySize=auto;html=1;" edge="1" parent="1" source="C55gJNyZ2iTpCZ69nZVK-15" target="C55gJNyZ2iTpCZ69nZVK-25">
          <mxGeometry relative="1" as="geometry" />
        </mxCell>
        <mxCell id="C55gJNyZ2iTpCZ69nZVK-27" value="no" style="edgeLabel;html=1;align=center;verticalAlign=middle;resizable=0;points=[];" vertex="1" connectable="0" parent="C55gJNyZ2iTpCZ69nZVK-26">
          <mxGeometry x="-0.1558" relative="1" as="geometry">
            <mxPoint as="offset" />
          </mxGeometry>
        </mxCell>
        <mxCell id="C55gJNyZ2iTpCZ69nZVK-15" value="считаем элементы, удовлетворящие условию&lt;br style=&quot;border-color: var(--border-color);&quot;&gt;if simb.lenght &amp;lt;= 3" style="rhombus;whiteSpace=wrap;html=1;" vertex="1" parent="1">
          <mxGeometry x="210" y="310" width="200" height="80" as="geometry" />
        </mxCell>
        <mxCell id="C55gJNyZ2iTpCZ69nZVK-19" value="" style="edgeStyle=orthogonalEdgeStyle;rounded=0;orthogonalLoop=1;jettySize=auto;html=1;" edge="1" parent="1" source="C55gJNyZ2iTpCZ69nZVK-16">
          <mxGeometry relative="1" as="geometry">
            <mxPoint x="520" y="460" as="targetPoint" />
          </mxGeometry>
        </mxCell>
        <mxCell id="C55gJNyZ2iTpCZ69nZVK-20" value="&lt;br&gt;" style="edgeLabel;html=1;align=center;verticalAlign=middle;resizable=0;points=[];" vertex="1" connectable="0" parent="C55gJNyZ2iTpCZ69nZVK-19">
          <mxGeometry x="-0.2611" y="1" relative="1" as="geometry">
            <mxPoint as="offset" />
          </mxGeometry>
        </mxCell>
        <mxCell id="C55gJNyZ2iTpCZ69nZVK-16" value="count++" style="whiteSpace=wrap;html=1;" vertex="1" parent="1">
          <mxGeometry x="460" y="320" width="120" height="60" as="geometry" />
        </mxCell>
        <mxCell id="C55gJNyZ2iTpCZ69nZVK-30" style="edgeStyle=orthogonalEdgeStyle;rounded=0;orthogonalLoop=1;jettySize=auto;html=1;entryX=0.5;entryY=0;entryDx=0;entryDy=0;" edge="1" parent="1" source="C55gJNyZ2iTpCZ69nZVK-21" target="C55gJNyZ2iTpCZ69nZVK-23">
          <mxGeometry relative="1" as="geometry" />
        </mxCell>
        <mxCell id="C55gJNyZ2iTpCZ69nZVK-34" value="yes" style="edgeLabel;html=1;align=center;verticalAlign=middle;resizable=0;points=[];" vertex="1" connectable="0" parent="C55gJNyZ2iTpCZ69nZVK-30">
          <mxGeometry x="-0.25" y="1" relative="1" as="geometry">
            <mxPoint as="offset" />
          </mxGeometry>
        </mxCell>
        <mxCell id="C55gJNyZ2iTpCZ69nZVK-31" style="edgeStyle=orthogonalEdgeStyle;rounded=0;orthogonalLoop=1;jettySize=auto;html=1;" edge="1" parent="1" source="C55gJNyZ2iTpCZ69nZVK-21">
          <mxGeometry relative="1" as="geometry">
            <mxPoint x="280" y="510" as="targetPoint" />
          </mxGeometry>
        </mxCell>
        <mxCell id="C55gJNyZ2iTpCZ69nZVK-33" value="no" style="edgeLabel;html=1;align=center;verticalAlign=middle;resizable=0;points=[];" vertex="1" connectable="0" parent="C55gJNyZ2iTpCZ69nZVK-31">
          <mxGeometry x="-0.2182" y="1" relative="1" as="geometry">
            <mxPoint as="offset" />
          </mxGeometry>
        </mxCell>
        <mxCell id="C55gJNyZ2iTpCZ69nZVK-21" value="собираем новый массив через&lt;br&gt;&amp;nbsp;j=0 как индексы нового массива из&lt;br&gt;&amp;nbsp;count элементов, вновь проверяя условие&lt;br&gt;if simb.lenght &amp;lt; = 3" style="rhombus;whiteSpace=wrap;html=1;" vertex="1" parent="1">
          <mxGeometry x="335" y="460" width="370" height="100" as="geometry" />
        </mxCell>
        <mxCell id="C55gJNyZ2iTpCZ69nZVK-35" style="edgeStyle=orthogonalEdgeStyle;rounded=0;orthogonalLoop=1;jettySize=auto;html=1;" edge="1" parent="1" source="C55gJNyZ2iTpCZ69nZVK-23">
          <mxGeometry relative="1" as="geometry">
            <mxPoint x="400" y="630" as="targetPoint" />
          </mxGeometry>
        </mxCell>
        <mxCell id="C55gJNyZ2iTpCZ69nZVK-23" value="arrayperfsimb[j] = simb" style="rounded=0;whiteSpace=wrap;html=1;" vertex="1" parent="1">
          <mxGeometry x="460" y="600" width="120" height="60" as="geometry" />
        </mxCell>
        <mxCell id="C55gJNyZ2iTpCZ69nZVK-25" value="пропускаем элемнт" style="whiteSpace=wrap;html=1;" vertex="1" parent="1">
          <mxGeometry x="40" y="320" width="120" height="60" as="geometry" />
        </mxCell>
        <mxCell id="C55gJNyZ2iTpCZ69nZVK-32" value="пропускаем элемент" style="rounded=0;whiteSpace=wrap;html=1;" vertex="1" parent="1">
          <mxGeometry x="160" y="480" width="120" height="60" as="geometry" />
        </mxCell>
        <mxCell id="C55gJNyZ2iTpCZ69nZVK-37" style="edgeStyle=orthogonalEdgeStyle;rounded=0;orthogonalLoop=1;jettySize=auto;html=1;" edge="1" parent="1" source="C55gJNyZ2iTpCZ69nZVK-36">
          <mxGeometry relative="1" as="geometry">
            <mxPoint x="340" y="700" as="targetPoint" />
          </mxGeometry>
        </mxCell>
        <mxCell id="C55gJNyZ2iTpCZ69nZVK-36" value="выводим новый массив через void print" style="rounded=0;whiteSpace=wrap;html=1;" vertex="1" parent="1">
          <mxGeometry x="280" y="600" width="120" height="60" as="geometry" />
        </mxCell>
        <mxCell id="C55gJNyZ2iTpCZ69nZVK-38" value="end" style="ellipse;whiteSpace=wrap;html=1;" vertex="1" parent="1">
          <mxGeometry x="280" y="700" width="120" height="80" as="geometry" />
        </mxCell>
      </root>
    </mxGraphModel>
  </diagram>
</mxfile>
